<?xml version="1.0" standalone="no"?>
<!DOCTYPE svg PUBLIC "-//W3C//DTD SVG 20010904//EN"
 "http://www.w3.org/TR/2001/REC-SVG-20010904/DTD/svg10.dtd">
<svg version="1.0" xmlns="http://www.w3.org/2000/svg"
 width="333.000000pt" height="333.000000pt" viewBox="0 0 333.000000 333.000000"
 preserveAspectRatio="xMidYMid meet">
<metadata>
Created by potrace 1.11, written by Peter Selinger 2001-2013
</metadata>
<g transform="translate(0.000000,333.000000) scale(0.100000,-0.100000)"
fill="#000000" stroke="none">
<path d="M506 3318 c29 -50 278 -420 286 -424 5 -3 8 85 6 215 l-2 221 -148 0
c-117 0 -148 -3 -142 -12z"/>
<path d="M0 1697 l0 -1023 55 6 c30 3 57 9 60 12 4 3 -10 38 -29 76 -130 259
-88 542 87 582 19 4 61 2 95 -4 50 -9 72 -20 110 -52 26 -23 57 -44 68 -48 18
-6 35 -29 44 -61 2 -5 10 -16 19 -23 9 -8 10 -11 4 -7 -25 12 -2 -20 31 -45
19 -14 33 -27 31 -28 -2 -2 4 -12 13 -21 49 -52 92 -102 92 -108 0 -10 220
-223 230 -223 26 0 17 26 -22 63 -25 23 -58 59 -73 80 l-28 38 11 85 c11 85
10 177 -3 226 -6 25 -4 27 37 38 94 23 179 60 250 108 l73 49 30 -29 c17 -16
40 -34 53 -38 17 -7 22 -18 22 -43 0 -18 5 -60 11 -93 7 -32 12 -65 12 -71 1
-19 17 -16 42 9 36 36 49 45 88 59 20 7 37 16 37 20 0 8 70 13 165 12 47 0 87
-7 123 -22 93 -37 102 -30 102 89 0 105 32 117 114 43 105 -95 177 -132 341
-172 86 -22 111 -32 115 -47 9 -34 62 -104 79 -105 9 0 27 -3 40 -5 14 -2 22
-2 19 1 -3 3 17 28 43 56 27 27 49 53 49 58 0 5 21 12 48 15 130 18 116 10
171 102 28 46 51 89 51 95 0 5 5 7 12 3 7 -4 8 -3 4 4 -4 7 -4 12 1 12 4 0 14
15 22 33 8 17 51 68 96 112 48 47 85 92 89 108 15 63 36 256 36 333 0 164 -35
321 -82 372 -57 60 -159 102 -331 136 -236 47 -450 43 -635 -10 -128 -37 -198
-76 -318 -175 -71 -59 -119 -91 -142 -95 -52 -10 -166 2 -204 22 -18 9 -76 58
-128 109 -164 158 -318 226 -576 256 -154 17 -379 -4 -506 -48 l-48 -17 -28
27 c-16 16 -56 61 -88 102 -32 41 -65 76 -71 79 -10 4 -13 -203 -13 -1017z
m367 837 c-3 -3 -12 -4 -19 -1 -8 3 -5 6 6 6 11 1 17 -2 13 -5z m-40 -10 c-3
-3 -12 -4 -19 -1 -8 3 -5 6 6 6 11 1 17 -2 13 -5z m-128 -38 c-11 -9 -89 -46
-89 -41 0 9 64 45 79 45 8 0 12 -2 10 -4z m2309 -13 c-32 -2 -86 -2 -120 0
-35 2 -9 3 57 3 66 0 94 -1 63 -3z m-189 -7 c-2 -2 -31 -6 -64 -9 -39 -4 -50
-3 -30 2 31 9 102 14 94 7z m324 -3 c-13 -2 -33 -2 -45 0 -13 2 -3 4 22 4 25
0 35 -2 23 -4z m70 -10 c-7 -2 -21 -2 -30 0 -10 3 -4 5 12 5 17 0 24 -2 18 -5z
m-543 -13 c-34 -11 -60 -11 -35 0 11 5 29 8 40 8 16 0 15 -2 -5 -8z m587 4
c-3 -3 -12 -4 -19 -1 -8 3 -5 6 6 6 11 1 17 -2 13 -5z m68 -14 c13 -5 14 -9 5
-9 -8 0 -24 4 -35 9 -13 5 -14 9 -5 9 8 0 24 -4 35 -9z m-158 -39 c12 -6 -10
-11 -73 -16 -49 -3 -103 -11 -119 -16 -17 -5 -78 -19 -135 -30 -264 -53 -279
-54 -249 -24 14 14 167 64 279 91 61 15 268 11 297 -5z m115 -32 c34 -14 34
-17 3 -53 -14 -16 -25 -24 -25 -17 0 8 -5 9 -19 2 -14 -8 -23 -6 -36 10 -17
18 -27 19 -107 13 -76 -6 -88 -5 -88 9 0 16 12 22 70 33 138 24 151 24 202 3z
m-282 -37 c0 -15 -17 -22 -92 -37 -51 -10 -95 -22 -98 -26 -3 -4 -17 -10 -30
-12 -14 -3 -37 -8 -52 -12 -39 -10 -87 -12 -82 -4 2 4 1 9 -3 12 -5 2 -2 2 5
1 6 -2 12 1 12 5 0 5 8 12 18 16 39 16 206 55 254 60 28 2 53 7 56 10 9 9 12
6 12 -13z m-731 -115 c-74 -51 -88 -57 -130 -56 l-44 1 49 10 c26 5 64 20 84
33 20 14 38 22 41 20 2 -3 2 -6 0 -8z m-156 -264 c10 -18 20 -41 22 -50 2 -10
4 -18 5 -18 1 0 3 -11 6 -25 16 -90 83 -243 150 -344 26 -38 31 -53 23 -68 -5
-10 -17 -18 -25 -18 -8 0 -27 -6 -42 -14 -35 -18 -108 -7 -169 26 l-41 22 -63
-42 c-57 -39 -67 -42 -129 -42 -56 0 -73 4 -112 29 -25 16 -48 33 -51 38 -3 5
19 40 48 77 50 62 97 138 150 241 11 22 29 42 40 45 11 3 21 14 23 25 6 39 31
91 59 123 37 44 79 41 106 -5z m1331 -506 c-35 -68 -78 -120 -122 -148 -58
-37 -73 -37 -39 -1 15 15 27 31 27 34 0 3 8 23 17 44 9 22 17 44 19 49 5 29
35 83 58 108 15 15 24 27 21 27 -3 0 0 10 7 23 11 20 13 17 20 -41 7 -50 5
-69 -8 -95z m-2537 59 c13 -15 14 -17 2 -8 -13 9 -16 9 -16 -3 0 -7 3 -14 6
-13 25 2 31 -4 27 -29 -2 -16 -5 -47 -5 -70 -1 -36 -4 -43 -20 -43 -24 0 -29
15 -35 103 -4 50 -2 66 7 60 9 -5 9 -3 0 8 -20 25 13 20 34 -5z m1718 -17 c-4
-6 -1 -10 6 -8 27 3 40 -1 33 -12 -4 -8 -9 -7 -15 2 -7 11 -9 11 -9 1 0 -7 -4
-11 -9 -8 -5 4 -7 -4 -3 -16 5 -21 6 -21 13 -2 4 10 8 13 8 6 1 -11 4 -10 16
1 15 16 55 12 55 -5 0 -5 -5 -6 -12 -2 -7 4 -8 3 -4 -5 4 -6 12 -9 17 -6 5 4
9 0 10 -7 0 -10 2 -10 6 0 2 6 8 10 12 8 4 -3 8 1 8 9 0 11 -4 12 -14 4 -9 -8
-13 -8 -13 0 0 6 3 11 8 12 48 5 62 3 58 -7 -5 -13 12 -13 33 0 10 7 12 6 6
-4 -6 -10 -4 -12 8 -7 11 4 17 1 17 -8 0 -8 4 -15 10 -15 6 0 6 -9 0 -24 -5
-13 -7 -26 -5 -27 1 -2 6 -24 9 -49 13 -90 14 -85 -24 -84 -104 3 -269 87
-336 170 l-33 40 21 18 c16 14 20 15 15 3 -3 -8 1 -23 8 -34 8 -10 15 -13 15
-8 0 6 4 4 9 -4 6 -9 9 -5 9 13 0 24 -2 25 -14 9 -8 -11 -13 -13 -14 -5 0 6
-1 15 -2 19 -3 6 33 13 74 14 10 0 17 3 17 7 -2 12 1 22 7 22 3 0 2 -5 -1 -11z
m-1177 -100 c-5 -15 -104 -49 -158 -54 -25 -2 -39 -1 -32 2 6 2 12 14 12 26 0
18 2 19 10 7 7 -11 10 -11 10 -2 0 7 5 10 10 7 6 -3 10 -3 10 2 0 4 29 8 65 8
36 -1 65 3 65 7 0 4 3 8 6 8 3 0 4 -5 2 -11z"/>
<path d="M1488 1672 c-19 -2 -28 -9 -28 -22 0 -15 10 -20 44 -25 50 -8 89 8
84 33 -3 17 -38 22 -100 14z"/>
<path d="M2097 1442 c6 -14 4 -15 -8 -5 -12 10 -15 8 -16 -10 0 -12 1 -16 4
-9 4 10 8 10 19 1 8 -6 14 -10 15 -8 6 31 5 38 -6 43 -10 3 -12 0 -8 -12z"/>
<path d="M3309 2041 c13 -27 -4 -75 -23 -64 -8 5 -8 3 0 -8 14 -19 12 -38 -6
-49 -13 -8 -12 -10 3 -10 10 0 15 -5 12 -10 -4 -6 -11 -7 -17 -4 -5 4 -4 -4 2
-17 l13 -24 -23 20 -23 20 15 -25 c18 -28 16 -59 -4 -71 -7 -5 -9 -9 -4 -9 5
0 4 -6 -2 -13 -14 -17 -24 -69 -11 -62 5 4 8 9 5 13 -2 4 0 16 5 27 l9 20 -2
-20 c-2 -11 1 -26 6 -34 6 -10 5 -12 -2 -7 -13 8 -13 9 -18 -56 -3 -40 0 -49
21 -62 14 -9 34 -33 44 -54 l20 -37 1 276 c0 234 -2 276 -14 276 -10 0 -12 -6
-7 -16z m-39 -415 c0 -3 -4 -8 -10 -11 -5 -3 -10 -1 -10 4 0 6 5 11 10 11 6 0
10 -2 10 -4z"/>
<path d="M3289 2021 c6 -10 9 -20 8 -22 -1 -2 0 -3 2 -1 11 7 8 31 -5 36 -11
4 -12 1 -5 -13z"/>
<path d="M3223 1885 c0 -8 4 -12 9 -9 5 3 6 10 3 15 -9 13 -12 11 -12 -6z"/>
<path d="M3224 1660 c0 -13 4 -16 10 -10 7 7 7 13 0 20 -6 6 -10 3 -10 -10z"/>
<path d="M2719 1062 c-96 -116 -92 -109 -78 -118 7 -4 9 -3 6 3 -7 11 36 56
46 48 4 -3 5 -2 2 1 -2 4 7 15 20 26 14 11 25 26 25 34 0 8 5 14 11 14 5 0 8
4 5 9 -3 4 3 19 14 31 19 22 24 30 17 30 -2 0 -33 -35 -68 -78z"/>
<path d="M2512 904 l-34 -34 26 2 c19 2 25 7 21 18 -5 11 -3 12 6 3 6 -6 18
-9 25 -6 17 6 19 24 2 21 -7 -2 -12 5 -10 15 4 22 3 22 -36 -19z"/>
</g>
</svg>
